HIERARCHY
ROOT Hips
{
    OFFSET   0.000000   0.000000   0.000000
    CHANNELS 6 Xposition Yposition Zposition Zrotation Xrotation Yrotation
    JOINT Chest
    {
        OFFSET   0.000000   8.007230   0.000000
        CHANNELS 3 Zrotation Xrotation Yrotation
        JOINT Chest2
        {
            OFFSET   0.000000  22.077100   0.000000
            CHANNELS 3 Zrotation Xrotation Yrotation
            JOINT Neck
            {
                OFFSET   0.000000  23.255100   0.000000
                CHANNELS 3 Zrotation Xrotation Yrotation
                JOINT Head
                {
                    OFFSET   0.000000  14.370100   1.956600
                    CHANNELS 3 Zrotation Xrotation Yrotation
                    End Site
                    {
                        OFFSET   0.000000  19.566000   0.000000
                    }
                }
            }
            JOINT LeftCollar
            {
                OFFSET   3.911900  19.017000  -0.467063
                CHANNELS 3 Zrotation Xrotation Yrotation
                JOINT LeftShoulder
                {
                    OFFSET  10.383700   0.000000   0.000000
                    CHANNELS 3 Zrotation Xrotation Yrotation
                    JOINT LeftElbow
                    {
                        OFFSET  26.662100   0.001193   0.000980
                        CHANNELS 3 Zrotation Xrotation Yrotation
                        JOINT LeftWrist
                        {
                            OFFSET  28.869000  -0.000059  -0.000082
                            CHANNELS 3 Zrotation Xrotation Yrotation
                            JOINT LeftFinger0
                            {
                                OFFSET   2.044650  -2.323450   3.252850
                                CHANNELS 3 Zrotation Xrotation Yrotation
                                JOINT LeftFinger01
                                {
                                    OFFSET   3.088130   0.000000   0.000000
                                    CHANNELS 3 Zrotation Xrotation Yrotation
                                    JOINT LeftFinger02
                                    {
                                        OFFSET   2.639460   0.000000   0.000000
                                        CHANNELS 3 Zrotation Xrotation Yrotation
                                        End Site
                                        {
                                            OFFSET   2.582190   0.000000   0.000000
                                        }
                                    }
                                }
                            }
                            JOINT LeftFinger1
                            {
                                OFFSET   8.364480   0.000000   3.252850
                                CHANNELS 3 Zrotation Xrotation Yrotation
                                JOINT LeftFinger11
                                {
                                    OFFSET   4.646930   0.000000   0.000000
                                    CHANNELS 3 Zrotation Xrotation Yrotation
                                    JOINT LeftFinger12
                                    {
                                        OFFSET   2.323470   0.000000   0.000000
                                        CHANNELS 3 Zrotation Xrotation Yrotation
                                        End Site
                                        {
                                            OFFSET   2.273050   0.000000   0.000000
                                        }
                                    }
                                }
                            }
                            JOINT LeftFinger2
                            {
                                OFFSET   8.364490   0.000016   1.078090
                                CHANNELS 3 Zrotation Xrotation Yrotation
                                JOINT LeftFinger21
                                {
                                    OFFSET   5.111610   0.000000   0.000000
                                    CHANNELS 3 Zrotation Xrotation Yrotation
                                    JOINT LeftFinger22
                                    {
                                        OFFSET   2.788150   0.000016   0.000000
                                        CHANNELS 3 Zrotation Xrotation Yrotation
                                        End Site
                                        {
                                            OFFSET   2.727660   0.000000   0.000000
                                        }
                                    }
                                }
                            }
                            JOINT LeftFinger3
                            {
                                OFFSET   7.899780   0.000015  -1.078090
                                CHANNELS 3 Zrotation Xrotation Yrotation
                                JOINT LeftFinger31
                                {
                                    OFFSET   4.646930   0.000000   0.000000
                                    CHANNELS 3 Zrotation Xrotation Yrotation
                                    JOINT LeftFinger32
                                    {
                                        OFFSET   2.323470   0.000000   0.000000
                                        CHANNELS 3 Zrotation Xrotation Yrotation
                                        End Site
                                        {
                                            OFFSET   2.273050   0.000000   0.000000
                                        }
                                    }
                                }
                            }
                            JOINT LeftFinger4
                            {
                                OFFSET   7.435090   0.000000  -3.252850
                                CHANNELS 3 Zrotation Xrotation Yrotation
                                JOINT LeftFinger41
                                {
                                    OFFSET   3.717550   0.000000   0.000000
                                    CHANNELS 3 Zrotation Xrotation Yrotation
                                    JOINT LeftFinger42
                                    {
                                        OFFSET   1.858770   0.000000   0.000000
                                        CHANNELS 3 Zrotation Xrotation Yrotation
                                        End Site
                                        {
                                            OFFSET   1.818440   0.000000   0.000000
                                        }
                                    }
                                }
                            }
                        }
                    }
                }
            }
            JOINT RightCollar
            {
                OFFSET  -3.911910  19.017000  -0.467062
                CHANNELS 3 Zrotation Xrotation Yrotation
                JOINT RightShoulder
                {
                    OFFSET -10.383700   0.000014   0.000000
                    CHANNELS 3 Zrotation Xrotation Yrotation
                    JOINT RightElbow
                    {
                        OFFSET -26.662100   0.001225   0.001091
                        CHANNELS 3 Zrotation Xrotation Yrotation
                        JOINT RightWrist
                        {
                            OFFSET -28.869000  -0.000020  -0.000085
                            CHANNELS 3 Zrotation Xrotation Yrotation
                            JOINT RightFinger0
                            {
                                OFFSET  -2.044650  -2.323490   3.252850
                                CHANNELS 3 Zrotation Xrotation Yrotation
                                JOINT RightFinger01
                                {
                                    OFFSET  -3.088130   0.000000   0.000000
                                    CHANNELS 3 Zrotation Xrotation Yrotation
                                    JOINT RightFinger02
                                    {
                                        OFFSET  -2.639460   0.000000   0.000000
                                        CHANNELS 3 Zrotation Xrotation Yrotation
                                        End Site
                                        {
                                            OFFSET  -2.582190   0.000000   0.000000
                                        }
                                    }
                                }
                            }
                            JOINT RightFinger1
                            {
                                OFFSET  -8.364480   0.000000   3.252850
                                CHANNELS 3 Zrotation Xrotation Yrotation
                                JOINT RightFinger11
                                {
                                    OFFSET  -4.646930   0.000000   0.000000
                                    CHANNELS 3 Zrotation Xrotation Yrotation
                                    JOINT RightFinger12
                                    {
                                        OFFSET  -2.323470   0.000000   0.000000
                                        CHANNELS 3 Zrotation Xrotation Yrotation
                                        End Site
                                        {
                                            OFFSET  -2.273050   0.000000   0.000000
                                        }
                                    }
                                }
                            }
                            JOINT RightFinger2
                            {
                                OFFSET  -8.364480   0.000000   1.078090
                                CHANNELS 3 Zrotation Xrotation Yrotation
                                JOINT RightFinger21
                                {
                                    OFFSET  -5.111620   0.000000   0.000000
                                    CHANNELS 3 Zrotation Xrotation Yrotation
                                    JOINT RightFinger22
                                    {
                                        OFFSET  -2.788160   0.000000   0.000000
                                        CHANNELS 3 Zrotation Xrotation Yrotation
                                        End Site
                                        {
                                            OFFSET  -2.727660   0.000000   0.000000
                                        }
                                    }
                                }
                            }
                            JOINT RightFinger3
                            {
                                OFFSET  -7.899780   0.000000  -1.078090
                                CHANNELS 3 Zrotation Xrotation Yrotation
                                JOINT RightFinger31
                                {
                                    OFFSET  -4.646930   0.000000   0.000000
                                    CHANNELS 3 Zrotation Xrotation Yrotation
                                    JOINT RightFinger32
                                    {
                                        OFFSET  -2.323470   0.000000   0.000000
                                        CHANNELS 3 Zrotation Xrotation Yrotation
                                        End Site
                                        {
                                            OFFSET  -2.273050   0.000000   0.000000
                                        }
                                    }
                                }
                            }
                            JOINT RightFinger4
                            {
                                OFFSET  -7.435090   0.000000  -3.252850
                                CHANNELS 3 Zrotation Xrotation Yrotation
                                JOINT RightFinger41
                                {
                                    OFFSET  -3.717550   0.000000   0.000000
                                    CHANNELS 3 Zrotation Xrotation Yrotation
                                    JOINT RightFinger42
                                    {
                                        OFFSET  -1.858760   0.000000   0.000000
                                        CHANNELS 3 Zrotation Xrotation Yrotation
                                        End Site
                                        {
                                            OFFSET  -1.818440   0.000000   0.000000
                                        }
                                    }
                                }
                            }
                        }
                    }
                }
            }
        }
    }
    JOINT LeftHip
    {
        OFFSET   9.783030   0.000000   0.000000
        CHANNELS 3 Zrotation Xrotation Yrotation
        JOINT LeftKnee
        {
            OFFSET   0.000063 -41.789100   0.000608
            CHANNELS 3 Zrotation Xrotation Yrotation
            JOINT LeftAnkle
            {
                OFFSET   0.000048 -41.133200  -0.000184
                CHANNELS 3 Zrotation Xrotation Yrotation
                JOINT LeftToe
                {
                    OFFSET   0.000000  -6.358960  14.674500
                    CHANNELS 3 Zrotation Xrotation Yrotation
                    End Site
                    {
                        OFFSET   0.000000   0.000000   3.913200
                    }
                }
            }
        }
    }
    JOINT RightHip
    {
        OFFSET  -9.783030   0.000000   0.000000
        CHANNELS 3 Zrotation Xrotation Yrotation
        JOINT RightKnee
        {
            OFFSET   0.000071 -41.789100   0.001239
            CHANNELS 3 Zrotation Xrotation Yrotation
            JOINT RightAnkle
            {
                OFFSET   0.000037 -41.133200  -0.000166
                CHANNELS 3 Zrotation Xrotation Yrotation
                JOINT RightToe
                {
                    OFFSET   0.000000  -6.358960  14.674500
                    CHANNELS 3 Zrotation Xrotation Yrotation
                    End Site
                    {
                        OFFSET   0.000000   0.000000   3.913200
                    }
                }
            }
        }
    }
}
MOTION
Frames: 4
Frame Time:   0.016667
  2.532920  89.438600   4.334190  -4.190450 -15.875100  -1.090300   0.192593  10.831000   5.310860  -0.676902  21.631700  10.884200  -3.386490  -1.126660  -0.064388  -5.569410  -2.260870   4.378430  -8.760830  -8.965720   0.330407 -70.566900  17.715000  -2.798870  -2.503140  -8.099150 -15.713000  16.469600  -5.730310   7.725650  35.725000  27.641500 -54.423600 -34.599200   0.000317   0.001635 -12.299600   0.000664  -0.003185 -31.950600   7.240280 -11.424400 -26.734900   0.008504  -0.001091 -18.714600   0.000622  -0.009862 -28.711500  -0.056878   0.103831 -39.259300  -0.004330  -0.002189 -26.145500   0.004050  -0.004333 -28.643300  -0.056762   0.103877 -38.029100  -0.004208  -0.002192 -25.327400  -0.003201  -0.010865 -33.190100  -0.064886   0.098894 -49.785700  -0.004530   0.000140 -33.157300   0.001242  -0.009278   9.774200  -5.178640  12.251800  40.277800  19.989400  51.810800 -34.889400   2.440800  40.324700  30.426000  18.360700  -5.503110 -40.619300  33.690000  65.177800  29.549000  -0.004152  -0.001491   9.774520  -0.002020   0.000616  20.925400   5.992020  15.274400  17.780100  -0.001667  -0.002640  12.446100   0.003851  -0.007500  21.917700   0.970175   2.386560  21.937100  -0.004265  -0.004683  14.610200  -0.005647  -0.003490  20.991400  -1.274490  -3.421290  21.020600  -0.006338   0.001203  13.999700  -0.003183  -0.002623  27.389400  -1.645870  -3.256290  41.140000  -0.004191  -0.001344  27.399200  -0.010633   0.000482   2.081690  19.232800   4.374460   0.545596   0.094462   2.007380  -0.470101  -4.605830  -2.359150   0.000000   0.000000   0.000000   3.647710  18.084000  -0.820815  -1.179900   3.188240  -4.012790   0.202988  -5.897130  -0.679182   0.000000   0.000000  -0.000000
  2.579890  89.438000   4.333050  -4.179570 -15.835100  -1.092890   0.199733  10.825300   5.262370  -0.651852  21.621700  10.782700  -3.390290  -1.161830  -0.064808  -5.583520  -2.331330   4.499530  -8.731420  -8.952010   0.325292 -70.476800  17.965800  -2.915490  -2.504500  -8.074090 -15.897900  16.459300  -5.672080   7.677970  35.823200  27.751500 -54.438300 -34.544300   0.000288   0.001509 -12.272100   0.000648  -0.003167 -31.947600   7.272270 -11.474600 -26.737700   0.008510  -0.001077 -18.716400   0.000612  -0.009859 -28.712200  -0.029003   0.052924 -39.258400  -0.004330  -0.002156 -26.145500   0.004007  -0.004342 -28.644800  -0.028948   0.052936 -38.060100  -0.004208  -0.002157 -25.348000  -0.003200  -0.010846 -33.205300  -0.033145   0.050283 -49.808400  -0.004529   0.000120 -33.172400   0.001201  -0.009309   9.815980  -5.132090  12.206900  40.258500  20.561000  51.147800 -34.191300   2.157020  39.921900  31.305900  18.475800  -5.974520 -40.876500  33.954000  65.239000  29.464400  -0.004151  -0.001647   9.732230  -0.002018   0.000571  21.265700   5.982650  15.005300  18.044300  -0.001671  -0.002635  12.631100   0.003852  -0.007548  22.241400   1.080120   2.615350  22.266200  -0.004261  -0.005097  14.829300  -0.005646  -0.003580  21.568700  -0.937080  -2.471570  21.585400  -0.005907   0.000949  14.375800  -0.003183  -0.002626  27.427900  -1.205790  -2.378240  41.156800  -0.003652  -0.001630  27.410400  -0.010487   0.000485   2.038820  19.194700   4.358850   0.545112   0.075122   2.025470  -0.481134  -4.574410  -2.351980  -0.000000   0.000000   0.000000   3.602700  18.033900  -0.840146  -1.182230   3.212760  -4.011580   0.225954  -5.909100  -0.655932   0.000000   0.000000  -0.000000
  2.623710  89.437500   4.332170  -4.175010 -15.789500  -1.112250   0.207594  10.814900   5.213510  -0.624743  21.602300  10.680100  -3.390870  -1.193730  -0.064934  -5.577350  -2.395470   4.609270  -8.707720  -8.930200   0.311348 -70.380700  18.234400  -3.043460  -2.479280  -8.048590 -16.086100  16.466500  -5.633550   7.636040  35.880300  27.838500 -54.421000 -34.484900   0.000255   0.001386 -12.242400   0.000630  -0.003151 -31.952100   7.305280 -11.523200 -26.746600   0.008516  -0.001062 -18.722600   0.000603  -0.009854 -28.712800  -0.000286   0.000491 -39.258300  -0.004330  -0.002124 -26.146000   0.003964  -0.004352 -28.647200  -0.000290   0.000472 -38.109900  -0.004209  -0.002123 -25.381200  -0.003199  -0.010827 -33.231300  -0.000393   0.000239 -49.847200  -0.004527   0.000098 -33.198200   0.001161  -0.009340   9.845460  -5.086500  12.181100  40.392600  20.967400  50.457200 -33.516800   1.967970  39.708700  32.290700  18.749300  -6.710320 -41.351500  34.399300  65.359700  29.282200  -0.004150  -0.001796   9.641120  -0.002015   0.000533  21.405100   5.969860  14.855300  18.150600  -0.001675  -0.002619  12.705500   0.003853  -0.007583  22.486500   1.391880   3.313800  22.524500  -0.004257  -0.005516  15.001300  -0.005645  -0.003674  22.037900  -0.340821  -0.873602  22.040400  -0.005433   0.000712  14.678900  -0.003183  -0.002629  27.436500  -0.425580  -0.851894  41.159200  -0.003281  -0.001939  27.412000  -0.010216   0.000488   2.002140  19.160300   4.334820   0.542495   0.055782   2.064900  -0.493976  -4.540830  -2.330930  -0.000000   0.000000   0.000000   3.555930  17.977400  -0.852750  -1.184210   3.233680  -4.002610   0.251174  -5.915650  -0.610847  -0.000000   0.000000  -0.000000
  2.662150  89.437100   4.331650  -4.185220 -15.741600  -1.168560   0.218366  10.797800   5.159520  -0.589955  21.570000  10.566000  -3.379310  -1.221210  -0.065144  -5.555820  -2.450330   4.733220  -8.689600  -8.895540   0.288984 -70.283100  18.495800  -3.142300  -2.443010  -8.028210 -16.315400  16.511500  -5.652900   7.601460  35.954100  27.920300 -54.413500 -34.405100   0.000214   0.001268 -12.202500   0.000602  -0.003135 -31.972800   7.337430 -11.566000 -26.768500   0.008523  -0.001047 -18.738000   0.000596  -0.009852 -28.713300   0.034752  -0.063446 -39.297300  -0.004331  -0.002091 -26.172200   0.003924  -0.004362 -28.652100   0.034687  -0.063500 -38.190400  -0.004208  -0.002092 -25.434800  -0.003201  -0.010809 -33.280200   0.039685  -0.060764 -49.920600  -0.004526   0.000079 -33.247100   0.001121  -0.009369   9.856970  -5.049550  12.176500  40.807000  21.180800  49.627800 -32.927900   2.288140  39.689300  32.501800  19.184000  -7.291470 -41.912000  34.835100  65.551400  29.017500  -0.004150  -0.001936   9.508740  -0.002016   0.000499  21.225000   6.004250  15.065100  18.017700  -0.001672  -0.002588  12.612500   0.003860  -0.007615  22.619400   1.928090   4.610810  22.688100  -0.004253  -0.005921  15.110200  -0.005647  -0.003776  22.194900   0.211193   0.527720  22.191400  -0.004937   0.000504  14.779500  -0.003180  -0.002632  27.148900   0.348364   0.688411  40.734200  -0.003032  -0.002273  27.129000  -0.009884   0.000491   1.989700  19.112100   4.301610   0.519526   0.077162   2.117080  -0.518325  -4.537990  -2.293090   0.000000   0.000000   0.000000   3.511730  17.917600  -0.852085  -1.186580   3.255500  -3.983400   0.279953  -5.918380  -0.559316  -0.000000   0.000000  -0.000000
